<svg xmlns="http://www.w3.org/2000/svg" width="230.0399963378906" height="97.45536790669257" viewBox="0 0 406 172" class="looka-1j8o68f"><defs id="SvgjsDefs5690"><linearGradient id="SvgjsLinearGradient5701"><stop id="SvgjsStop5702" stop-color="#fbb040" offset="0"></stop><stop id="SvgjsStop5703" stop-color="#f9ed32" offset="1"></stop></linearGradient></defs><g id="SvgjsG5691" featurekey="symbolFeature-0" transform="matrix(1,0,0,1,0,36.21100044250488)" fill="url(#SvgjsLinearGradient5701)"><g xmlns="http://www.w3.org/2000/svg"><g><path d="M97.938,68.771h-6.316V20.81c0-1.115-0.905-2.021-2.021-2.021H10.399c-1.115,0-2.021,0.906-2.021,2.021v47.961H2.062    C0.924,68.771,0,69.694,0,70.832v2.084c0,0.103,0.008,0.204,0.022,0.306c0.527,3.521,3.348,7.447,7.159,7.922    c0.083,0.01,0.169,0.017,0.252,0.017l84.51,0.071h0.003c4.404,0,7.604-4.197,8.041-8.085c0.009-0.075,0.013-0.152,0.013-0.23    v-2.084C100,69.694,99.076,68.771,97.938,68.771z M12.42,22.831h75.16v45.939H59.985c-0.133,0-0.262,0.016-0.386,0.04H41.16    c-0.128-0.025-0.261-0.04-0.396-0.04H12.42V22.831z M91.948,77.107L7.586,77.036c-1.461-0.261-3.024-2.16-3.434-4.143h35.086    c0.702,1.246,2.017,2.085,3.519,2.085h15.233c1.502,0,2.816-0.839,3.52-2.085h34.35C95.538,74.926,93.854,77.107,91.948,77.107z     M38.84,37.498c-0.814-0.814-2.133-0.814-2.947,0l-8.689,8.689c-0.814,0.814-0.814,2.133,0,2.948l8.689,8.688    c0.407,0.407,0.94,0.611,1.474,0.611s1.066-0.204,1.474-0.611c0.814-0.813,0.814-2.133,0-2.947l-7.216-7.215l7.216-7.216    C39.654,39.631,39.654,38.312,38.84,37.498z M59.361,57.823c0.406,0.407,0.939,0.611,1.474,0.611c0.533,0,1.066-0.204,1.474-0.611    l8.688-8.688c0.814-0.814,0.814-2.133,0-2.948l-8.688-8.689c-0.814-0.814-2.134-0.814-2.947,0c-0.814,0.814-0.814,2.133,0,2.947    l7.215,7.216l-7.215,7.215C58.547,55.69,58.547,57.01,59.361,57.823z M41.793,62.275c0.299,0.148,0.617,0.22,0.931,0.22    c0.765,0,1.5-0.422,1.866-1.152l12.506-25.011c0.515-1.03,0.098-2.281-0.933-2.796c-1.029-0.513-2.281-0.098-2.797,0.932    L40.861,59.479C40.346,60.509,40.763,61.76,41.793,62.275z"></path></g></g></g><g id="SvgjsG5692" featurekey="textGroupContainer" transform="matrix(1,0,0,1,405,0)" fill="#ffffff"><rect xmlns="http://www.w3.org/2000/svg" y="0" height="1" width="1" opacity="0"></rect><rect xmlns="http://www.w3.org/2000/svg" y="0" x="-285" width="3" height="172"></rect></g><g id="SvgjsG5693" featurekey="nameFeature-0" transform="matrix(1.5138306595983044,0,0,1.5138306595983044,136.06223724634165,25.136802259103984)" fill="#ffffff"><path d="M29.772 38.0836 l0.50044 0.29442 l0 1.596 l-1.0156 0.026016 l-1.6904 0 c-3.9712 0 -7.646 -2.3128 -9.3624 -5.892 l-1.3572 -3.584 l-9.6048 0 l-2.9648 7.4444 l4.4048 0 l0 2.0316 l-7.402 0 l11.134 -27.949 l5.8972 0 l8.444 22.288 c1.2872 2.5256 1.9408 3.1108 3.0168 3.7448 z M8.0516 28.492 l8.0244 0 l-3.9124 -10.326 z M20.07 33.308 c1.1992 2.4952 3.6764 4.2424 6.4608 4.5952 c-0.52 -0.6812 -1.0272 -1.5524 -1.6336 -2.7436 l-7.9904 -21.077 l-3.116 0 l-0.5136 1.2888 z M49.958000000000006 13.882000000000001 c-1.7196 -0.1248 -3.1648 0.31398 -4.0556 1.2388 c-0.7168 0.7444 -1.0432 1.7652 -0.92 2.8768 c0.24238 2.1764 2.344 3.0948 6.0368 4.53 c0.6064 0.23602 1.2324 0.4796 1.8744 0.7428 c3.4164 1.398 6.9096 3.438 6.9096 7.96 c0 2.1032 -0.8828 8.9688 -12.251 8.9688 c-0.30558 0 -0.67276 -0.017617 -1.0648 -0.048828 c-0.0616 -0.0032031 -0.12199 -0.0016016 -0.18359 -0.0064064 l0.0016016 -0.011211 c-2.2072 -0.2016 -5.4404 -1.0308 -7.6656 -3.9888 l0 3.826 l-2.0316 0 l0 -9.4808 l1.8188 0 l0.2032 0.78 c1.2516 5.26 5.0744 6.5976 7.8312 6.848 c1.7196 0.12199 3.1584 -0.31359 4.0472 -1.2372 c0.7168 -0.746 1.0436 -1.7668 0.92 -2.8784 c-0.24199 -2.1764 -2.3436 -3.0948 -6.0368 -4.53 c-0.606 -0.23558 -1.232 -0.47956 -1.874 -0.74276 c-3.4164 -1.398 -6.9096 -3.438 -6.9096 -7.9596 c0 -2.1036 0.8828 -8.9692 12.251 -8.9692 c0.33 0 0.7296 0.021211 1.1572 0.06 c0.030781 0.0016016 0.060392 -0.0032031 0.091172 -0.0016016 l0 0.01 c2.2072 0.2016 5.44 1.0304 7.6652 3.9888 l0 -3.8264 l2.032 0 l0 9.478 l-1.8188 0 l-0.2032 -0.7804 c-1.25 -5.2564 -5.068 -6.596 -7.8248 -6.8464 z M50.284000000000006 24.422 c-3.7192 -1.4464 -6.9324 -2.6964 -7.3212 -6.1992 c-0.15441 -1.3784 0.16918 -2.6672 0.88116 -3.7384 c-4.5868 1.388 -5.2064 4.6664 -5.2064 6.2856 c0 2.7128 1.5832 4.4176 5.6484 6.0804 c0.6308 0.2568 1.2468 0.496 1.84 0.7284 c3.7188 1.4432 6.9324 2.6932 7.3208 6.1976 c0.15281 1.3784 -0.16879 2.6656 -0.8808 3.7384 c4.5868 -1.388 5.206 -4.6664 5.206 -6.2852 c0 -2.7132 -1.5832 -4.418 -5.648 -6.0808 c-0.6308 -0.2568 -1.2468 -0.496 -1.84 -0.7268 z M66.13600000000001 12.033999999999999 l27.494 0 l0 7.8524 l-2.032 0 l0 -5.8204 l-7.7484 0 l0 20.805 c0 1.6952 1.38 3.0752 3.0756 3.0752 l0 2.032 l-14.084 0 l0 -2.032 c1.6952 0 3.0752 -1.38 3.0752 -3.0752 l0 -20.805 l-7.7484 0 l0 5.8204 l-2.0316 0 l0 -7.8524 z M82.852 37.9452 c-0.6468 -0.8548 -1.032 -1.9212 -1.0304 -3.0752 l0 -20.805 l-3.8716 0 l0 20.805 c0 1.154 -0.3852 2.2204 -1.0324 3.0752 l5.9344 0 z M131.103 38.0152 l0.57564 0.2748 l0 1.656 l-1.016 0.031211 l-6.11 0 c-3.2492 0 -5.5572 -1.4908 -7.4852 -4.8308 c-0.4304 -0.746 -0.7932 -1.4436 -1.1264 -2.0856 c-1.3732 -2.646 -2.056 -3.8992 -4.98 -3.9968 l0 5.806 c0 1.6952 1.38 3.0752 3.0752 3.0752 l0 2.032 l-14.092 0 l0 -2.032 c1.6952 0 3.0752 -1.38 3.0752 -3.0752 l0 -20.774 l-3.0752 0 l0 -2.032 l17.044 0 c4.6828 0 8.4912 3.81 8.4912 8.4912 c0 3.2152 -1.8188 5.9848 -4.46 7.4268 c2.2984 1.1408 3.7368 3.1304 5.1232 5.0956 c1.4044 1.9896 2.7292 3.8684 4.9608 4.938 z M116.98800000000001 14.096 l-1.1816 0.000039062 c1.944 1.5716 3.1988 3.9056 3.1988 6.4592 c0 2.612 -1.198 4.9136 -3.1176 6.4596 l1.1004 0 c3.5616 0 6.4596 -2.8964 6.4596 -6.4596 c0 -3.5628 -2.898 -6.4592 -6.4596 -6.4592 z M116.97400000000002 20.555 c0 -3.1644 -2.726 -5.9408 -6.0108 -6.3716 l0 12.738 c3.4376 -0.442 6.0108 -3.0656 6.0108 -6.3668 z M104.01880000000001 37.9452 l5.9444 0 c-0.6488 -0.8564 -1.0324 -1.9212 -1.0324 -3.0752 l0 -20.774 l-3.8796 0 l0 20.774 c0 1.154 -0.3852 2.2204 -1.0324 3.0752 z M124.55300000000001 37.9452 l2.9324 -0.0016406 c-1.1836 -1.1168 -2.1036 -2.4204 -3.004 -3.696 c-1.9716 -2.7928 -3.6732 -5.2032 -7.8296 -5.2032 l-0.80922 0 c0.746 0.8536 1.2968 1.9164 1.9016 3.0804 c0.3216 0.6176 0.6696 1.2888 1.084 2.0056 c1.5832 2.7452 3.1876 3.8148 5.7248 3.8148 z M151.76800000000003 11.86 c8.0832 0 14.656 6.3424 14.656 14.138 s-6.5748 14.138 -14.656 14.138 s-14.656 -6.3424 -14.656 -14.138 s6.5748 -14.138 14.656 -14.138 z M157.66000000000003 25.997999999999998 c0 -6.5616 -2.698 -12.106 -5.892 -12.106 s-5.892 5.5444 -5.892 12.106 c0 6.562 2.698 12.106 5.892 12.106 s5.892 -5.544 5.892 -12.106 z M139.14520000000002 25.997999999999998 c0 5.0048 3.1828 9.3104 7.708 11.15 c-1.84 -2.5664 -3.0088 -6.5668 -3.0088 -11.15 s1.1688 -8.5836 3.0088 -11.15 c-4.5252 1.8416 -7.708 6.1456 -7.708 11.15 z M156.68500000000003 37.1504 c4.5252 -1.8416 7.7096 -6.1456 7.7096 -11.15 s-3.1828 -9.3088 -7.7096 -11.15 c1.84 2.5668 3.0088 6.5668 3.0088 11.15 s-1.1688 8.584 -3.0088 11.15 z"></path></g><g id="SvgjsG5694" featurekey="sloganFeature-0" transform="matrix(0.42710948688663214,0,0,0.42710948688663214,163,103.71069350058573)" fill="#ffffff"><path d="M13.74 13 c0.96 0.7 1.56 1.82 1.56 3.1 c0 2.16 -1.74 3.9 -3.9 3.9 l-11.4 0 l0 -7.8 l4.66 0 l0 0.02 l0 3.1 l6.74 0 c0.42 0.02 0.74 0.36 0.74 0.78 s-0.32 0.76 -0.74 0.78 l-8.28 0 l0 -3.12 l-1.56 0 l0 4.68 l9.84 0 l0.02 0 c1.28 0 2.32 -1.04 2.32 -2.34 c0 -1.22 -0.98 -2.26 -2.2 -2.32 l-5.32 0 l0 -1.56 l5.26 0 c1.26 -0.06 2.26 -1.06 2.26 -2.34 c0 -1.3 -1.04 -2.34 -2.32 -2.34 l-0.02 0 l-9.84 0 l0 1.56 l9.84 0 c0.42 0.02 0.74 0.36 0.74 0.78 s-0.32 0.76 -0.74 0.78 l-11.4 0 l0 -4.68 l11.4 0 c2.16 0 3.9 1.74 3.9 3.9 c0 1.28 -0.6 2.4 -1.56 3.12 z M36.652 15.32 l0.9 -1.56 l2.72 4.68 l1.8 0 c-0.4 -0.64 -4.2 -7.14 -4.52 -7.78 l-3.92 6.8 l-1.46 2.54 l-5.4 0 c0.3 -0.5 2.32 -4.02 4.26 -7.4 c1.14 -1.98 2.4 -4.2 3.82 -6.62 l1.8 0 l-3.72 6.44 l-3.46 6.02 l1.8 0 c2.46 -4.34 4 -6.9 6.28 -10.9 c0.14 0.24 7.18 12.44 7.22 12.46 l-5.4 0 z M69.044 5.98 l0 4.7 l-8.6 0 c-1.18 0.1 -2.08 1.12 -2.08 2.32 s0.9 2.18 2.08 2.32 l5.48 0 l0 1.56 l-5.48 0 c-2.02 -0.16 -3.62 -1.82 -3.62 -3.9 c0 -2 1.54 -3.7 3.54 -3.86 l7.12 0 l0 -1.58 l-7.04 0 l0 0.02 c-2.86 0.16 -5.14 2.52 -5.14 5.44 c0 2.9 2.28 5.28 5.14 5.44 l7.04 0 l0 -3.12 l1.56 0 l0 4.68 l-8.6 0 c-3.74 -0.16 -6.7 -3.24 -6.7 -7 c0 -3.78 2.96 -6.84 6.7 -7 z M88.21600000000001 15.16 l1.14 -1.06 l6.42 5.9 l-6.9 0 l-5.24 -4.8 l8.12 -7.66 l-2.26 0 l-5.86 5.66 l0 -5.66 l-1.56 0 l0 10.9 l2.76 0 l1.72 1.56 l-6.04 0 l0 -14.02 l4.68 0 l0 3.44 l3.68 -3.44 l6.82 0 l-9.78 9.2 l3.56 3.26 l2.3 0 z M122.548 5.98 l0 4.68 l-10.62 0 l0 1.56 l7.88 0 l0 1.56 l-9.44 0 l0 -4.68 l10.62 0 l0 -1.56 l-12.18 0 l0 10.9 l12.18 0 l0 -1.56 l-10.62 0 l0 -1.56 l12.18 0 l0 4.68 l-15.3 0 l0 -14.02 l15.3 0 z M144.64000000000001 12.84 l0 -6.86 l4.68 0 l0 14.02 l-4.68 0 l-7.5 -8.68 l0 -2.4 l8.22 9.52 l2.4 0 l0 -10.9 l-1.56 0 l0 9.5 l-8.22 -9.5 l-2.4 0 l0 10.9 l1.56 0 l0 -4.72 l1.56 1.8 l0 4.48 l-4.68 0 l0 -14.02 l4.68 0 z M160.792 5.98 l8.6 0 c3.74 0.16 6.7 3.24 6.7 7 c0 3.78 -2.96 6.86 -6.7 7.02 l-8.6 0 l0 -10.9 l8.6 0 c2.02 0.16 3.62 1.82 3.62 3.9 c0 2 -1.54 3.72 -3.54 3.88 l-5.56 0 l0 -4.92 l1.56 0 l0 3.36 l3.92 -0.02 c1.18 -0.1 2.08 -1.12 2.08 -2.3 c0 -1.02 -0.64 -1.86 -1.54 -2.2 c-0.34 -0.14 -0.54 -0.14 -1.08 -0.14 l-6.5 0 l0 7.78 l7.04 0 c2.86 -0.16 5.14 -2.52 5.14 -5.46 c0 -2.9 -2.28 -5.28 -5.14 -5.44 l-8.6 0 l0 -1.56 z M205.436 5.98 l11.42 0 c2.14 0 3.88 1.74 3.88 3.9 c0 2.14 -1.74 3.9 -3.88 3.9 l-9.86 -0.02 l0 4.68 l1.56 0 l0 -3.12 l1.54 0 l0 4.68 l-4.66 0 l0 -7.8 l11.42 0.02 c1.28 0 2.32 -1.06 2.32 -2.34 c0 -1.3 -1.04 -2.34 -2.32 -2.34 l-9.86 0 l0 1.56 l9.86 0 c0.4 0.02 0.74 0.36 0.74 0.78 s-0.32 0.76 -0.78 0.78 l-0.02 0 l-11.36 0 l0 -4.68 z M246.788 20 l-5.4 0 l-1.82 -3.14 l-3.5 0 l0 3.14 l-4.66 0 l0 -7.8 l11.44 0.02 c1.3 0 2.34 -1.06 2.34 -2.34 c0 -1.3 -1.04 -2.34 -2.34 -2.34 l-9.88 0 l0 1.56 l9.88 0 c0.42 0.02 0.74 0.36 0.74 0.78 s-0.32 0.76 -0.74 0.78 l-0.02 0 l-0.02 0 l-11.4 0 l0 -4.68 l11.44 0 c2.16 0 3.9 1.74 3.9 3.9 c0 2.14 -1.74 3.9 -3.9 3.9 l-9.88 -0.02 l0 4.68 l1.56 0 l0 -3.14 l5.94 0 c0.64 1.16 1.72 2.94 1.82 3.14 l1.8 0 c-0.16 -0.22 -1.08 -1.86 -1.82 -3.14 l1.8 0 c0.66 1.14 1.32 2.32 1.86 3.2 z M264.65999999999997 5.359999999999999 c4.2 0 7.62 3.42 7.62 7.64 s-3.42 7.62 -7.62 7.62 c-4.22 0 -7.64 -3.4 -7.64 -7.62 s3.42 -7.64 7.64 -7.64 z M264.65999999999997 19.08 c3.36 0 6.08 -2.72 6.08 -6.08 s-2.72 -6.1 -6.08 -6.1 c-3.38 0 -6.1 2.74 -6.1 6.1 s2.72 6.08 6.1 6.08 z M264.65999999999997 8.44 c2.5 0 4.54 2.06 4.54 4.56 s-2.04 4.54 -4.54 4.54 s-4.56 -2.04 -4.56 -4.54 s2.06 -4.56 4.56 -4.56 z M264.65999999999997 16 c1.66 0 3 -1.34 3 -3 c0 -1.68 -1.34 -3.02 -3 -3.02 c-1.68 0 -3.02 1.34 -3.02 3.02 c0 1.66 1.34 3 3.02 3 z M290.11199999999997 12.2 l8.96 0 l0 7.8 l-8.62 0 c-3.74 -0.16 -6.7 -3.24 -6.7 -7 c0 -3.78 2.96 -6.86 6.7 -7.02 l8.62 0 l0 4.7 l-8.62 0 c-1.18 0.1 -2.08 1.12 -2.08 2.3 c0 1.22 0.9 2.18 2.08 2.34 l5.48 0 l0 1.56 l-5.48 0 c-2.02 -0.16 -3.62 -1.82 -3.62 -3.9 c0 -2 1.54 -3.72 3.54 -3.88 l7.12 0 l0 -1.56 l-7.04 0 c-2.86 0.16 -5.14 2.54 -5.14 5.46 c0 2.9 2.28 5.28 5.14 5.44 l7.04 0 l0 -4.68 l-7.38 0 l0 -1.56 z M325.924 20 l-5.4 0 l-1.82 -3.14 l-3.5 0 l0 3.14 l-4.66 0 l0 -7.8 l11.44 0.02 c1.3 0 2.34 -1.06 2.34 -2.34 c0 -1.3 -1.04 -2.34 -2.34 -2.34 l-9.88 0 l0 1.56 l9.88 0 c0.42 0.02 0.74 0.36 0.74 0.78 s-0.32 0.76 -0.74 0.78 l-0.02 0 l-0.02 0 l-11.4 0 l0 -4.68 l11.44 0 c2.16 0 3.9 1.74 3.9 3.9 c0 2.14 -1.74 3.9 -3.9 3.9 l-9.88 -0.02 l0 4.68 l1.56 0 l0 -3.14 l5.94 0 c0.64 1.16 1.72 2.94 1.82 3.14 l1.8 0 c-0.16 -0.22 -1.08 -1.86 -1.82 -3.14 l1.8 0 c0.66 1.14 1.32 2.32 1.86 3.2 z M347.27599999999995 15.32 l0.9 -1.56 l2.72 4.68 l1.8 0 c-0.4 -0.64 -4.2 -7.14 -4.52 -7.78 l-3.92 6.8 l-1.46 2.54 l-5.4 0 c0.3 -0.5 2.32 -4.02 4.26 -7.4 c1.14 -1.98 2.4 -4.2 3.82 -6.62 l1.8 0 l-3.72 6.44 l-3.46 6.02 l1.8 0 c2.46 -4.34 4 -6.9 6.28 -10.9 c0.14 0.24 7.18 12.44 7.22 12.46 l-5.4 0 z M374.84799999999996 13.92 l4.48 -7.94 l4.96 0 l0 14.02 l-4.68 0 l0 -5.24 l-2.98 5.24 l-3.58 0 l-4.54 -7.96 l0 -2.94 l5.46 9.34 l1.76 0 l5.44 -9.34 l0 9.34 l1.56 0 l0 -10.9 l-2.5 0 l-5.42 9.36 l-5.34 -9.36 l-2.5 0 l0 10.9 l1.54 0 l0 -2.94 l1.56 2.68 l0 1.82 l-4.66 0 l0 -14.02 l4.96 0 z M405.19999999999993 13.92 l4.48 -7.94 l4.96 0 l0 14.02 l-4.68 0 l0 -5.24 l-2.98 5.24 l-3.58 0 l-4.54 -7.96 l0 -2.94 l5.46 9.34 l1.76 0 l5.44 -9.34 l0 9.34 l1.56 0 l0 -10.9 l-2.5 0 l-5.42 9.36 l-5.34 -9.36 l-2.5 0 l0 10.9 l1.54 0 l0 -2.94 l1.56 2.68 l0 1.82 l-4.66 0 l0 -14.02 l4.96 0 z M441.4119999999999 5.98 l0 4.68 l-10.62 0 l0 1.56 l7.88 0 l0 1.56 l-9.44 0 l0 -4.68 l10.62 0 l0 -1.56 l-12.18 0 l0 10.9 l12.18 0 l0 -1.56 l-10.62 0 l0 -1.56 l12.18 0 l0 4.68 l-15.3 0 l0 -14.02 l15.3 0 z M468.2639999999999 20 l-5.4 0 l-1.82 -3.14 l-3.5 0 l0 3.14 l-4.66 0 l0 -7.8 l11.44 0.02 c1.3 0 2.34 -1.06 2.34 -2.34 c0 -1.3 -1.04 -2.34 -2.34 -2.34 l-9.88 0 l0 1.56 l9.88 0 c0.42 0.02 0.74 0.36 0.74 0.78 s-0.32 0.76 -0.74 0.78 l-0.02 0 l-0.02 0 l-11.4 0 l0 -4.68 l11.44 0 c2.16 0 3.9 1.74 3.9 3.9 c0 2.14 -1.74 3.9 -3.9 3.9 l-9.88 -0.02 l0 4.68 l1.56 0 l0 -3.14 l5.94 0 c0.64 1.16 1.72 2.94 1.82 3.14 l1.8 0 c-0.16 -0.22 -1.08 -1.86 -1.82 -3.14 l1.8 0 c0.66 1.14 1.32 2.32 1.86 3.2 z"></path></g><g id="SvgjsG5695" featurekey="sloganFeature-1" transform="matrix(0.42710948688663214,0,0,0.42710948688663214,194.00001812588897,120.71069350058573)" fill="#ffffff"><path d="M21.6 5.98 l5.4 0 c-0.3 0.5 -2.32 4.02 -4.26 7.4 c-1.14 1.98 -2.4 4.2 -3.82 6.62 l-1.8 0 l-1.58 -2.7 c-0.8 -1.46 -1.72 -2.96 -2.04 -3.54 c-0.94 1.62 -1.82 3.16 -2.48 4.34 c-0.38 0.68 -0.76 1.32 -1.1 1.9 l-1.8 0 c0.16 -0.32 4.92 -8.64 5.38 -9.34 c0.04 0.04 1.16 1.98 2.28 3.92 l2.24 3.86 c0.96 -1.66 2.52 -4.4 3.86 -6.7 l2.42 -4.2 l-1.8 0 c-1.76 3.1 -3.02 5.3 -4.46 7.74 l-2.24 -3.8 l-2.3 -3.94 c-2.5 4.32 -3.98 6.96 -6.28 10.9 c-0.14 -0.24 -7.24 -12.44 -7.22 -12.46 l5.4 0 l2.72 4.68 l-0.9 1.56 l-2.72 -4.68 l-1.8 0 c0.4 0.64 4.14 7.16 4.52 7.78 l3.92 -6.8 l1.46 -2.54 l1.8 0 c0.18 0.34 2.78 4.8 3.64 6.2 c1.12 -1.92 1.98 -3.44 2.6 -4.54 z M52.971999999999994 5.98 l0 4.68 l-10.62 0 l0 1.56 l7.88 0 l0 1.56 l-9.44 0 l0 -4.68 l10.62 0 l0 -1.56 l-12.18 0 l0 10.9 l12.18 0 l0 -1.56 l-10.62 0 l0 -1.56 l12.18 0 l0 4.68 l-15.3 0 l0 -14.02 l15.3 0 z M78.184 13 c0.96 0.7 1.56 1.82 1.56 3.1 c0 2.16 -1.74 3.9 -3.9 3.9 l-11.4 0 l0 -7.8 l4.66 0 l0 0.02 l0 3.1 l6.74 0 c0.42 0.02 0.74 0.36 0.74 0.78 s-0.32 0.76 -0.74 0.78 l-8.28 0 l0 -3.12 l-1.56 0 l0 4.68 l9.84 0 l0.02 0 c1.28 0 2.32 -1.04 2.32 -2.34 c0 -1.22 -0.98 -2.26 -2.2 -2.32 l-5.32 0 l0 -1.56 l5.26 0 c1.26 -0.06 2.26 -1.06 2.26 -2.34 c0 -1.3 -1.04 -2.34 -2.32 -2.34 l-0.02 0 l-9.84 0 l0 1.56 l9.84 0 c0.42 0.02 0.74 0.36 0.74 0.78 s-0.32 0.76 -0.74 0.78 l-11.4 0 l0 -4.68 l11.4 0 c2.16 0 3.9 1.74 3.9 3.9 c0 1.28 -0.6 2.4 -1.56 3.12 z M109.888 5.98 l11.42 0 c2.14 0 3.88 1.74 3.88 3.9 c0 2.14 -1.74 3.9 -3.88 3.9 l-9.86 -0.02 l0 4.68 l1.56 0 l0 -3.12 l1.54 0 l0 4.68 l-4.66 0 l0 -7.8 l11.42 0.02 c1.28 0 2.32 -1.06 2.32 -2.34 c0 -1.3 -1.04 -2.34 -2.32 -2.34 l-9.86 0 l0 1.56 l9.86 0 c0.4 0.02 0.74 0.36 0.74 0.78 s-0.32 0.76 -0.78 0.78 l-0.02 0 l-11.36 0 l0 -4.68 z M142.46 5.359999999999999 c4.2 0 7.62 3.42 7.62 7.64 s-3.42 7.62 -7.62 7.62 c-4.22 0 -7.64 -3.4 -7.64 -7.62 s3.42 -7.64 7.64 -7.64 z M142.46 19.08 c3.36 0 6.08 -2.72 6.08 -6.08 s-2.72 -6.1 -6.08 -6.1 c-3.38 0 -6.1 2.74 -6.1 6.1 s2.72 6.08 6.1 6.08 z M142.46 8.44 c2.5 0 4.54 2.06 4.54 4.56 s-2.04 4.54 -4.54 4.54 s-4.56 -2.04 -4.56 -4.54 s2.06 -4.56 4.56 -4.56 z M142.46 16 c1.66 0 3 -1.34 3 -3 c0 -1.68 -1.34 -3.02 -3 -3.02 c-1.68 0 -3.02 1.34 -3.02 3.02 c0 1.66 1.34 3 3.02 3 z M175.67200000000003 20 l-5.4 0 l-1.82 -3.14 l-3.5 0 l0 3.14 l-4.66 0 l0 -7.8 l11.44 0.02 c1.3 0 2.34 -1.06 2.34 -2.34 c0 -1.3 -1.04 -2.34 -2.34 -2.34 l-9.88 0 l0 1.56 l9.88 0 c0.42 0.02 0.74 0.36 0.74 0.78 s-0.32 0.76 -0.74 0.78 l-0.02 0 l-0.02 0 l-11.4 0 l0 -4.68 l11.44 0 c2.16 0 3.9 1.74 3.9 3.9 c0 2.14 -1.74 3.9 -3.9 3.9 l-9.88 -0.02 l0 4.68 l1.56 0 l0 -3.14 l5.94 0 c0.64 1.16 1.72 2.94 1.82 3.14 l1.8 0 c-0.16 -0.22 -1.08 -1.86 -1.82 -3.14 l1.8 0 c0.66 1.14 1.32 2.32 1.86 3.2 z M187.14400000000003 10.66 l0 -4.68 l15.3 0 l0 4.68 l-3.76 0 l0 -1.56 l2.2 0 l0 -1.56 l-12.18 0 l0 1.56 l5.32 0 l-0.02 9.34 l1.56 0 l0 -9.34 l1.56 0 l0 10.9 l-4.68 0 l0 -9.34 l-5.3 0 z M229.21600000000004 5.98 l0 4.68 l-10.62 0 l0 1.56 l7.88 0 l0 1.56 l-9.44 0 l0 -4.68 l10.62 0 l0 -1.56 l-12.18 0 l0 10.9 l1.56 0 l0 -3.12 l1.56 0 l0 4.68 l-4.68 0 l0 -14.02 l15.3 0 z M246.70800000000003 5.359999999999999 c4.2 0 7.62 3.42 7.62 7.64 s-3.42 7.62 -7.62 7.62 c-4.22 0 -7.64 -3.4 -7.64 -7.62 s3.42 -7.64 7.64 -7.64 z M246.70800000000003 19.08 c3.36 0 6.08 -2.72 6.08 -6.08 s-2.72 -6.1 -6.08 -6.1 c-3.38 0 -6.1 2.74 -6.1 6.1 s2.72 6.08 6.1 6.08 z M246.70800000000003 8.44 c2.5 0 4.54 2.06 4.54 4.56 s-2.04 4.54 -4.54 4.54 s-4.56 -2.04 -4.56 -4.54 s2.06 -4.56 4.56 -4.56 z M246.70800000000003 16 c1.66 0 3 -1.34 3 -3 c0 -1.68 -1.34 -3.02 -3 -3.02 c-1.68 0 -3.02 1.34 -3.02 3.02 c0 1.66 1.34 3 3.02 3 z M266.12000000000006 7.539999999999999 l0 7.78 l13.82 0 l0 4.68 l-15.38 0 l0 -1.56 l13.84 0 l0 -1.56 l-13.84 0 l0 -10.9 l4.68 0 l0 7.8 l-1.56 0 l0 -6.24 l-1.56 0 z M296.09200000000004 20 l-4.68 0 l0 -14.02 l4.68 0 l0 10.9 l-1.56 0 l0 -9.34 l-1.56 0 l0 10.9 l3.12 0 l0 1.56 z M315.204 5.359999999999999 c4.2 0 7.62 3.42 7.62 7.64 s-3.42 7.62 -7.62 7.62 c-4.22 0 -7.64 -3.4 -7.64 -7.62 s3.42 -7.64 7.64 -7.64 z M315.204 19.08 c3.36 0 6.08 -2.72 6.08 -6.08 s-2.72 -6.1 -6.08 -6.1 c-3.38 0 -6.1 2.74 -6.1 6.1 s2.72 6.08 6.1 6.08 z M315.204 8.44 c2.5 0 4.54 2.06 4.54 4.56 s-2.04 4.54 -4.54 4.54 s-4.56 -2.04 -4.56 -4.54 s2.06 -4.56 4.56 -4.56 z M315.204 16 c1.66 0 3 -1.34 3 -3 c0 -1.68 -1.34 -3.02 -3 -3.02 c-1.68 0 -3.02 1.34 -3.02 3.02 c0 1.66 1.34 3 3.02 3 z"></path></g></svg>